<svg xmlns="http://www.w3.org/2000/svg" width="1440" height="960" viewBox="0 0 1440 960" role="img" aria-label="August Health EHR theme preview">
  <rect width="1440" height="960" fill="#ffffff"/>
  <circle cx="1164" cy="170" r="180" fill="#080331" opacity="0.14"/>
  <circle cx="1028" cy="285" r="120" fill="#1b1463" opacity="0.16"/>
  <rect x="0" y="0" width="1440" height="88" fill="#000000" opacity="0.95"/>
  <circle cx="58" cy="44" r="14" fill="#080331"/>
  <rect x="100" y="32" width="178" height="24" rx="12" fill="#ffffff" opacity="0.9"/>
  <rect x="1198" y="22" width="164" height="44" rx="22" fill="#080331"/>
  <text x="56" y="224" fill="#000000" font-family="Reckless Neue" font-size="78" font-weight="800">August Health EHR</text>
  <text x="60" y="282" fill="#000000" font-family="Reckless Neue" font-size="28" opacity="0.72">August Health EHR 的 Design.md 主题展示，围绕医疗健康、图片资产、浅色界面、设计 Token组织页面。</text>
  <rect x="60" y="332" width="138" height="42" rx="21" fill="#080331" opacity="0.14"/><text x="86" y="360" fill="#000000" font-family="Reckless Neue" font-size="18" font-weight="700">医疗健康</text><rect x="224" y="332" width="138" height="42" rx="21" fill="#1b1463" opacity="0.14"/><text x="250" y="360" fill="#000000" font-family="Reckless Neue" font-size="18" font-weight="700">图片资产</text><rect x="388" y="332" width="138" height="42" rx="21" fill="#080331" opacity="0.14"/><text x="414" y="360" fill="#000000" font-family="Reckless Neue" font-size="18" font-weight="700">浅色界面</text><rect x="552" y="332" width="138" height="42" rx="21" fill="#1b1463" opacity="0.14"/><text x="578" y="360" fill="#000000" font-family="Reckless Neue" font-size="18" font-weight="700">AI</text>
  <rect x="60" y="492" width="352" height="220" rx="20" fill="#080331"/>
  <rect x="456" y="492" width="352" height="220" rx="20" fill="#1b1463"/>
  <rect x="852" y="492" width="352" height="220" rx="20" fill="#000000"/>
  <text x="88" y="636" fill="#ffffff" font-family="Reckless Neue" font-size="72" font-weight="800">Aa</text>
  <text x="484" y="636" fill="#ffffff" font-family="Reckless Neue" font-size="72" font-weight="800">UI</text>
  <text x="880" y="636" fill="#ffffff" font-family="ui-monospace" font-size="54" font-weight="700">Token</text>
</svg>
