<svg xmlns="http://www.w3.org/2000/svg" width="1440" height="960" viewBox="0 0 1440 960" role="img" aria-label="Atlantic.vc theme preview">
  <rect width="1440" height="960" fill="#f7f7f4"/>
  <circle cx="1164" cy="170" r="180" fill="#0d0d0f" opacity="0.14"/>
  <circle cx="1028" cy="285" r="120" fill="#000000" opacity="0.16"/>
  <rect x="0" y="0" width="1440" height="88" fill="#000000" opacity="0.95"/>
  <circle cx="58" cy="44" r="14" fill="#0d0d0f"/>
  <rect x="100" y="32" width="178" height="24" rx="12" fill="#ffffff" opacity="0.9"/>
  <rect x="1198" y="22" width="164" height="44" rx="22" fill="#0d0d0f"/>
  <text x="56" y="224" fill="#000000" font-family="Mono" font-size="78" font-weight="800">Atlantic.vc</text>
  <text x="60" y="282" fill="#000000" font-family="Mono" font-size="28" opacity="0.72">Atlantic.vc 的 Design.md 主题展示，围绕金融科技、暗色界面、AI、数据仪表盘组织页面。</text>
  <rect x="60" y="332" width="138" height="42" rx="21" fill="#0d0d0f" opacity="0.14"/><text x="86" y="360" fill="#000000" font-family="Mono" font-size="18" font-weight="700">金融科技</text><rect x="224" y="332" width="138" height="42" rx="21" fill="#000000" opacity="0.14"/><text x="250" y="360" fill="#000000" font-family="Mono" font-size="18" font-weight="700">暗色界面</text><rect x="388" y="332" width="138" height="42" rx="21" fill="#0d0d0f" opacity="0.14"/><text x="414" y="360" fill="#000000" font-family="Mono" font-size="18" font-weight="700">AI</text><rect x="552" y="332" width="138" height="42" rx="21" fill="#000000" opacity="0.14"/><text x="578" y="360" fill="#000000" font-family="Mono" font-size="18" font-weight="700">数据仪表盘</text>
  <rect x="60" y="492" width="352" height="220" rx="20" fill="#0d0d0f"/>
  <rect x="456" y="492" width="352" height="220" rx="20" fill="#000000"/>
  <rect x="852" y="492" width="352" height="220" rx="20" fill="#000000"/>
  <text x="88" y="636" fill="#ffffff" font-family="Mono" font-size="72" font-weight="800">Aa</text>
  <text x="484" y="636" fill="#ffffff" font-family="Mono" font-size="72" font-weight="800">UI</text>
  <text x="880" y="636" fill="#ffffff" font-family="Mono" font-size="54" font-weight="700">Token</text>
</svg>
